 <svg  version="1.0" xmlns="http://www.w3.org/2000/svg"  width="300.000000pt" height="309.000000pt" viewBox="0 0 300.000000 309.000000"  preserveAspectRatio="xMidYMid meet">  <g transform="translate(0.000000,309.000000) scale(0.100000,-0.100000)" fill="#ffffff" stroke="none"> <path d="M1509 2839 c-9 -4 -31 -10 -50 -12 -47 -6 -69 -17 -69 -33 0 -15 16 -19 22 -6 4 12 68 24 68 13 0 -4 15 -7 33 -7 17 0 46 -3 62 -8 l30 -7 -25 15 c-14 8 -33 15 -42 16 -10 0 -18 5 -18 10 0 11 83 2 88 -10 1 -3 15 -5 30 -2 26 3 45 -8 54 -33 1 -5 7 -9 12 -7 4 1 14 -3 22 -9 11 -9 14 -7 14 10 0 12 -6 21 -15 21 -9 0 -18 7 -21 15 -4 8 -15 15 -25 15 -10 0 -19 4 -19 10 0 5 -19 9 -42 8 -24 0 -55 2 -69 5 -14 3 -32 1 -40 -4z"/> <path d="M1213 2804 c2 -16 -4 -19 -43 -15 -25 1 -50 7 -57 13 -17 14 -33 1 -33 -27 0 -13 -6 -25 -12 -28 -7 -2 -10 -7 -7 -11 3 -3 16 4 28 15 12 12 40 23 62 26 36 5 39 4 38 -18 0 -13 -3 -18 -6 -11 -8 19 -34 14 -75 -14 -21 -15 -41 -24 -44 -21 -3 3 -16 -3 -28 -15 -14 -14 -17 -22 -8 -25 6 -3 12 -12 12 -21 0 -11 16 0 45 31 35 39 51 49 80 51 21 2 41 9 45 17 7 10 11 10 24 0 13 -11 16 -11 16 3 0 9 -4 16 -10 16 -5 0 -10 6 -10 14 0 9 7 12 20 9 11 -3 20 -8 20 -12 0 -11 84 1 92 13 11 16 10 26 -2 26 -5 0 -10 -8 -10 -17 0 -12 -3 -14 -8 -6 -4 6 -35 15 -69 18 -56 7 -61 6 -60 -11z"/> <path d="M1754 2742 c6 -10 -21 -27 -39 -23 -6 2 -6 -1 0 -8 8 -7 22 -7 49 0 21 6 62 8 90 5 28 -3 61 -7 72 -9 13 -1 19 -7 17 -14 -3 -7 0 -13 6 -13 7 0 21 -9 33 -20 12 -11 32 -20 44 -20 13 0 36 -11 51 -25 25 -22 26 -24 8 -25 -17 0 -15 -3 10 -20 36 -23 49 -54 34 -82 -6 -11 -9 -20 -7 -21 53 -27 61 -34 64 -62 2 -16 -1 -32 -6 -35 -5 -3 -3 -17 5 -30 16 -28 18 -33 33 -77 8 -27 8 -33 -4 -33 -19 0 -18 -7 7 -41 20 -29 14 -40 -9 -17 -7 7 -12 8 -12 2 0 -5 5 -15 12 -22 15 -15 21 -72 7 -72 -6 0 -8 -11 -4 -29 4 -18 1 -34 -7 -42 -8 -8 -14 -23 -15 -34 0 -11 -5 -51 -11 -88 -6 -38 -8 -75 -5 -83 3 -8 -1 -14 -10 -14 -8 0 -17 -6 -19 -12 -3 -8 -21 -12 -46 -12 -23 1 -42 -2 -42 -7 0 -5 20 -9 45 -9 33 0 45 -4 45 -15 0 -11 -10 -14 -40 -11 -40 4 -63 -10 -40 -24 7 -5 11 -19 8 -34 -7 -35 7 -33 22 3 6 16 22 32 35 35 23 6 58 49 62 76 17 121 28 176 33 180 4 3 10 32 14 65 4 33 12 72 18 87 8 22 7 33 -6 52 -9 14 -13 31 -11 38 3 8 -4 59 -16 113 -11 55 -22 117 -23 137 -1 20 -5 40 -9 44 -11 11 -8 26 4 18 27 -16 -13 34 -58 73 -70 61 -86 72 -105 73 -10 0 -18 5 -18 11 0 11 -13 25 -55 54 -24 17 -221 33 -211 17z m436 -265 c0 -5 -9 -2 -20 8 -11 10 -20 25 -20 34 1 12 5 10 20 -8 11 -13 20 -28 20 -34z"/> <path d="M1002 2696 c-22 -24 -44 -52 -50 -62 -9 -17 -6 -19 28 -20 30 -1 39 3 43 18 3 10 -1 24 -8 31 -11 10 -9 18 11 45 35 45 24 40 -24 -12z"/> <path d="M1119 2630 c-3 -8 -4 -47 -1 -87 3 -55 7 -70 18 -66 10 4 11 10 4 24 -6 10 -8 29 -5 41 7 28 -8 110 -16 88z"/> <path d="M906 2578 c-34 -31 -38 -62 -9 -66 17 -3 27 6 42 36 28 55 12 70 -33 30z m34 -5 c-1 -11 -26 -43 -34 -43 -8 0 -8 35 1 43 9 9 33 9 33 0z"/> <path d="M960 2550 c-1 -8 -3 -24 -6 -35 -7 -32 6 -89 17 -78 18 18 21 71 5 100 -9 16 -16 22 -16 13z"/> <path d="M1238 2493 c-8 -10 -15 -29 -15 -43 -1 -14 1 -19 4 -12 3 6 10 9 16 5 6 -4 8 0 4 10 -3 8 1 21 9 27 15 14 19 30 6 30 -5 0 -16 -8 -24 -17z"/> <path d="M1050 2461 c0 -17 24 -51 35 -51 3 0 0 12 -5 26 -6 14 -8 30 -4 35 3 5 -2 9 -10 9 -9 0 -16 -8 -16 -19z"/> <path d="M845 2436 c-13 -9 -16 -19 -10 -32 7 -17 9 -17 12 -2 2 9 10 15 18 12 10 -4 12 0 8 15 -6 25 -5 24 -28 7z"/> <path d="M737 2353 c-20 -23 -5 -53 27 -53 21 0 23 3 17 32 -8 38 -22 45 -44 21z"/> <path d="M1300 2316 c0 -3 14 -13 30 -21 17 -9 28 -20 25 -24 -6 -11 23 -23 36 -15 5 3 9 13 8 22 0 11 -3 12 -6 5 -2 -7 -9 -13 -14 -13 -6 0 -8 4 -4 9 5 9 -10 24 -30 27 -5 1 -18 5 -27 9 -10 4 -18 5 -18 1z"/> <path d="M1725 2311 c-3 -6 -15 -11 -27 -11 -11 0 -32 -9 -48 -20 -15 -11 -30 -17 -33 -14 -3 3 -13 2 -23 -4 -39 -22 7 -19 66 5 68 27 87 39 78 48 -3 4 -9 2 -13 -4z"/> <path d="M1415 2300 c-3 -5 -3 -11 2 -11 4 -1 13 -2 18 -3 28 -4 95 -49 118 -79 49 -64 131 -56 210 21 35 34 53 68 23 43 -11 -10 -15 -8 -18 6 -3 13 -9 8 -21 -20 -19 -45 -54 -60 -119 -54 -56 5 -84 23 -67 43 9 11 6 14 -13 14 -14 0 -46 11 -72 25 -54 29 -53 28 -61 15z"/> <path d="M1038 2236 c-19 -14 -24 -36 -9 -36 12 0 33 28 29 39 -2 6 -10 4 -20 -3z"/> <path d="M1870 2226 c0 -8 10 -16 22 -18 12 -2 28 -13 34 -26 11 -23 11 -23 17 -2 4 16 -1 23 -18 30 -13 5 -26 14 -30 19 -9 16 -25 13 -25 -3z"/> <path d="M954 2195 c-7 -16 0 -29 17 -31 5 -1 12 -2 15 -3 9 -2 -17 -31 -27 -31 -5 0 -9 7 -9 15 0 12 -8 11 -45 -7 -25 -12 -44 -27 -42 -33 2 -5 -10 -18 -27 -27 -27 -15 -28 -17 -9 -18 12 0 29 8 39 17 24 25 63 43 89 43 13 0 31 7 39 16 18 17 22 39 6 29 -5 -3 -10 -1 -10 5 0 6 -7 18 -15 26 -13 14 -16 14 -21 -1z"/> <path d="M1977 2165 c10 -13 24 -25 32 -25 8 0 19 -7 26 -16 11 -15 12 -15 12 1 0 9 -17 28 -38 41 -49 30 -54 30 -32 -1z"/> <path d="M735 1968 c1 -35 10 -76 19 -93 l16 -30 0 43 c0 23 -5 42 -11 42 -6 0 -10 16 -8 38 3 50 1 62 -10 62 -5 0 -8 -28 -6 -62z"/> <path d="M2030 1931 c5 -11 15 -23 20 -26 6 -3 10 -15 10 -26 0 -11 5 -17 10 -14 16 10 12 30 -13 58 -26 31 -42 36 -27 8z"/> <path d="M824 1887 c-2 -7 0 -24 5 -38 9 -23 10 -23 10 -2 1 12 4 28 7 37 3 9 1 16 -5 16 -7 0 -14 -6 -17 -13z"/> <path d="M2067 1843 c-10 -9 -9 -63 1 -63 4 0 8 16 9 35 1 37 0 39 -10 28z"/> <path d="M1095 1820 c-4 -6 -16 -15 -28 -19 -13 -5 18 -12 91 -19 62 -6 126 -18 142 -27 31 -16 50 -13 50 7 0 5 -6 8 -13 5 -15 -5 -54 20 -45 29 4 3 16 1 27 -6 16 -8 21 -8 21 2 0 7 9 0 20 -17 l20 -30 0 25 c0 38 -65 60 -145 49 -33 -5 -69 -6 -80 -3 -11 3 -27 8 -37 10 -9 3 -19 0 -23 -6z"/> <path d="M1734 1819 c-2 -4 -34 -8 -71 -11 -70 -5 -113 -23 -113 -45 0 -7 5 -13 10 -13 15 0 12 -26 -5 -40 -17 -14 -20 -30 -6 -30 5 0 18 17 28 38 14 25 31 41 54 49 37 13 267 17 235 4 -16 -6 -12 -10 25 -19 51 -14 57 -17 87 -56 25 -33 30 -101 10 -157 -31 -93 -99 -139 -210 -142 -62 -2 -78 1 -105 21 -37 26 -93 102 -93 126 0 8 -6 19 -13 23 -16 10 -39 72 -31 84 3 5 0 9 -5 9 -15 0 -14 33 2 49 10 11 6 12 -23 6 -46 -10 -103 -10 -118 -1 -7 4 -12 1 -12 -8 0 -9 5 -16 10 -16 6 0 10 -9 10 -20 0 -11 -6 -20 -13 -20 -9 0 -11 -12 -9 -40 3 -32 1 -40 -12 -40 -9 0 -23 -16 -31 -37 -21 -49 -61 -91 -106 -112 -52 -24 -192 -8 -229 26 -14 13 -28 23 -31 23 -6 0 -41 82 -54 127 -8 28 8 88 30 109 20 21 11 31 -12 13 -9 -8 -14 -9 -10 -3 4 8 -4 13 -24 16 -33 5 -48 -6 -25 -19 9 -5 19 -35 25 -78 14 -99 22 -126 44 -157 l20 -27 -27 -36 c-15 -20 -25 -43 -22 -50 3 -9 -1 -15 -9 -15 -18 0 -19 -17 -1 -50 14 -24 14 -23 22 25 7 52 30 115 40 115 4 0 22 -9 41 -21 33 -20 100 -31 205 -33 61 -1 93 23 135 100 47 85 54 104 60 157 l6 47 47 0 c47 0 47 0 52 -38 6 -43 39 -118 77 -177 14 -22 28 -49 31 -60 6 -22 19 -25 144 -29 163 -7 245 70 252 234 2 54 8 78 19 86 14 11 14 12 -1 18 -8 3 -26 3 -40 0 -19 -5 -24 -2 -24 14 0 21 -18 32 -51 32 -10 0 -19 4 -19 10 0 18 -65 44 -113 45 -27 0 -51 -3 -53 -6z"/> <path d="M768 1750 c-5 -36 4 -46 56 -55 31 -6 38 -5 34 6 -3 8 -16 13 -31 11 -23 -2 -27 2 -33 33 -8 43 -20 45 -26 5z"/> <path d="M900 1773 c-43 -8 -43 -21 -1 -25 23 -2 41 0 41 4 0 5 9 8 21 8 13 0 18 -4 13 -12 -5 -8 -2 -9 12 -4 10 5 36 10 57 13 70 10 49 23 -35 22 -46 -1 -94 -4 -108 -6z"/> <path d="M693 1740 c-56 -33 -55 -75 1 -316 17 -71 66 -164 86 -164 5 0 10 -7 10 -15 0 -11 11 -15 42 -15 l42 0 -45 29 c-51 32 -82 75 -98 136 -72 276 -73 312 -13 330 18 5 31 14 29 19 -6 17 -21 16 -54 -4z"/> <path d="M1706 1749 c-92 -14 -136 -47 -136 -101 0 -38 14 -52 38 -39 11 6 31 12 44 12 17 1 18 3 6 6 -24 6 -23 15 3 31 18 12 21 11 26 -6 6 -24 66 -28 87 -6 11 11 19 11 40 1 14 -7 26 -18 26 -24 0 -23 -59 -44 -116 -42 -29 2 -56 0 -59 -3 -7 -7 69 -19 87 -14 7 2 25 7 40 10 15 4 41 20 58 36 27 26 36 30 66 24 22 -4 34 -2 34 5 0 6 -10 11 -21 11 -12 0 -37 10 -56 21 -19 12 -37 19 -40 15 -3 -3 2 -8 11 -12 9 -3 16 -10 16 -14 0 -5 -25 0 -55 11 -30 10 -60 19 -67 19 -32 0 -90 -23 -114 -45 -27 -25 -54 -25 -33 1 6 7 9 20 6 28 -3 8 2 21 11 29 19 18 110 43 119 33 3 -3 12 -1 19 5 7 6 14 6 18 0 3 -5 15 -7 26 -4 11 3 41 0 66 -7 24 -7 47 -10 50 -7 8 7 -58 25 -111 30 -22 2 -62 0 -89 -4z"/> <path d="M1023 1738 c-23 -11 -32 -38 -13 -38 6 0 10 6 10 14 0 8 6 16 13 18 29 10 117 8 139 -3 21 -11 22 -11 9 4 -16 20 -121 23 -158 5z"/> <path d="M1338 1709 c6 -7 12 -19 12 -27 0 -10 -4 -12 -12 -4 -16 12 -88 21 -88 10 0 -4 14 -8 30 -8 18 0 37 -8 47 -19 16 -19 17 -19 30 6 17 32 17 30 -9 44 -19 9 -21 9 -10 -2z"/> <path d="M1085 1673 c-11 -3 -25 -9 -30 -14 -6 -4 -33 -13 -60 -19 -38 -8 -50 -8 -57 2 -7 10 -9 10 -5 -2 5 -20 185 -20 197 0 6 10 12 10 25 -4 10 -9 24 -15 33 -11 8 3 21 0 28 -6 11 -9 16 -6 24 15 11 31 11 31 52 6 l33 -20 -34 0 c-44 0 -37 -5 17 -14 55 -8 57 12 4 42 -54 30 -140 39 -180 18 -38 -20 -54 -20 -28 -1 20 15 17 17 -19 8z m135 -13 c0 -5 -4 -11 -8 -14 -11 -7 -53 4 -48 13 6 9 56 10 56 1z"/> <path d="M2202 1672 c-7 -5 -10 -16 -6 -27 7 -17 8 -17 21 1 14 18 15 18 32 -5 16 -21 19 -22 25 -6 13 34 -36 59 -72 37z"/> <path d="M704 1654 c3 -9 6 -18 6 -20 0 -2 6 -4 14 -4 21 0 31 21 15 31 -23 14 -42 11 -35 -7z"/> <path d="M973 1598 c-13 -6 -23 -15 -23 -20 0 -14 16 -9 41 12 26 21 17 25 -18 8z"/> <path d="M1050 1591 c0 -12 94 -31 103 -20 4 5 5 7 1 5 -3 -2 -27 2 -55 9 -27 7 -49 10 -49 6z"/> <path d="M2105 1559 c-4 -6 2 -19 13 -29 20 -18 20 -18 26 3 7 29 -25 50 -39 26z"/> <path d="M795 1551 c-3 -5 -1 -13 5 -16 6 -4 1 -18 -15 -37 -27 -32 -30 -68 -6 -76 9 -3 11 1 7 15 -4 14 5 30 33 58 35 35 37 40 23 52 -20 15 -39 16 -47 4z"/> <path d="M1100 1550 c0 -9 29 -15 118 -24 32 -3 50 -1 47 4 -4 6 -30 10 -60 10 -30 0 -65 4 -79 10 -16 6 -26 6 -26 0z"/> <path d="M1740 1545 c-63 -12 -64 -13 -20 -13 25 -1 59 5 75 13 36 16 30 16 -55 0z"/> <path d="M1930 1551 c0 -6 5 -13 10 -16 23 -15 8 -26 -27 -19 l-36 7 19 -26 c23 -32 33 -30 58 12 16 28 17 34 5 42 -18 11 -29 11 -29 0z"/> <path d="M978 1539 c-10 -5 -18 -14 -18 -19 0 -17 26 -11 45 10 20 22 4 28 -27 9z"/> <path d="M2068 1494 c-5 -4 -8 -21 -8 -38 0 -21 3 -27 11 -19 6 6 9 23 7 38 -2 15 -6 23 -10 19z"/> <path d="M812 1421 c-10 -6 -9 -10 7 -14 13 -3 21 -13 21 -26 0 -12 6 -21 14 -21 25 0 25 14 1 43 -27 30 -25 30 -43 18z"/> <path d="M2079 1406 c-14 -12 -31 -37 -37 -56 -14 -40 -14 -40 -2 -40 5 0 12 16 16 35 4 25 12 35 24 35 10 0 22 9 25 21 10 29 4 30 -26 5z"/> <path d="M1670 1335 c0 -22 -4 -25 -40 -25 -29 0 -48 -7 -72 -29 -40 -34 -110 -47 -130 -23 -22 27 -96 54 -116 43 -19 -11 -17 -12 56 -31 23 -6 40 -15 37 -19 -2 -5 14 -13 38 -19 46 -12 134 -5 144 11 4 6 -4 8 -21 5 -25 -5 -26 -4 -10 13 9 10 29 17 44 17 41 -1 80 27 80 57 0 14 -2 25 -5 25 -3 0 -5 -11 -5 -25z"/> <path d="M1065 1310 c-58 -29 -75 -54 -75 -111 0 -27 5 -49 10 -49 6 0 10 11 10 24 0 50 27 91 79 120 28 15 51 29 51 32 0 10 -38 2 -75 -16z"/> <path d="M2145 1290 c-16 -10 -47 -19 -67 -19 -45 -1 -52 -21 -8 -21 34 0 79 20 99 44 17 20 14 19 -24 -4z"/> <path d="M2009 1213 c0 -10 -2 -27 -5 -38 -2 -11 -5 -41 -7 -67 -2 -25 -12 -59 -22 -75 -11 -15 -20 -34 -21 -41 -1 -6 -34 -43 -73 -82 -39 -38 -71 -74 -71 -79 0 -19 138 125 165 172 30 53 58 137 46 137 -5 0 -6 20 -3 45 2 25 2 45 -2 45 -3 0 -6 -8 -7 -17z"/> <path d="M1135 1150 c-10 -16 15 -30 40 -24 16 4 33 -8 68 -45 27 -28 54 -51 62 -51 8 0 15 -4 15 -10 0 -5 23 -16 52 -25 61 -18 58 -18 58 -4 0 5 -4 8 -8 5 -15 -9 -95 34 -133 73 -22 21 -39 41 -39 45 0 3 14 4 30 2 17 -2 30 1 30 5 0 16 28 10 42 -8 7 -10 24 -19 38 -20 24 -2 24 -1 -5 13 l-30 14 35 -6 c19 -4 64 -7 99 -8 54 -1 65 -4 72 -21 7 -19 8 -19 8 3 1 15 7 22 20 22 11 0 21 -3 24 -7 2 -5 2 -2 1 5 -2 6 1 12 5 12 5 0 16 3 25 6 10 4 16 1 16 -9 0 -10 8 -13 28 -9 l27 5 -34 -36 c-27 -28 -38 -34 -48 -26 -10 9 -13 8 -13 -4 0 -8 -6 -17 -12 -20 -7 -2 -10 -8 -6 -12 14 -14 69 18 109 64 31 35 48 46 70 46 16 0 30 4 32 10 1 6 -58 9 -163 8 -91 -2 -167 -3 -170 -4 -3 -1 -9 0 -15 1 -5 2 -73 4 -150 5 -77 1 -147 5 -156 9 -10 4 -20 2 -24 -4z"/> <path d="M1020 973 c0 -6 39 -52 86 -102 47 -50 101 -110 119 -132 63 -80 153 -121 274 -122 85 -2 115 10 182 70 37 33 67 73 55 73 -3 0 -30 -22 -61 -50 -73 -63 -134 -85 -201 -70 -79 16 -124 32 -124 44 0 6 -4 5 -9 -3 -7 -11 -14 -10 -40 8 -16 12 -39 34 -50 49 -32 44 -231 246 -231 235z"/> <path d="M2001 961 c-12 -8 -12 -32 -2 -155 6 -80 16 -168 22 -195 22 -102 -21 -216 -120 -323 -29 -32 -49 -58 -44 -58 11 0 113 95 113 106 0 4 11 21 24 38 26 35 57 164 51 211 -13 89 -17 140 -18 240 -2 92 0 110 13 109 52 -5 278 -48 299 -56 14 -6 34 -13 45 -15 10 -2 31 -12 46 -23 16 -11 31 -20 34 -20 7 0 110 -46 202 -91 33 -16 66 -29 72 -29 7 0 29 -9 49 -20 21 -11 44 -20 51 -20 8 0 26 -8 40 -18 54 -37 122 -52 122 -27 0 10 -10 15 -31 15 -17 0 -49 12 -72 29 -23 15 -67 36 -97 45 -30 10 -82 30 -115 46 -349 167 -326 158 -495 189 -165 30 -174 31 -189 22z"/> <path d="M935 901 c-55 -32 -94 -67 -59 -55 10 4 28 13 39 21 11 7 28 13 38 13 15 0 16 -3 7 -20 -9 -16 -8 -20 6 -20 13 0 15 -8 10 -47 -4 -27 -7 -115 -8 -198 l-3 -150 36 -76 c46 -96 79 -138 154 -195 40 -31 105 -68 105 -60 0 2 -20 16 -44 30 -61 36 -135 120 -182 207 l-39 74 3 253 c2 138 0 252 -5 252 -4 0 -31 -13 -58 -29z"/> <path d="M1330 900 c0 -6 10 -14 23 -19 23 -9 115 -25 132 -24 98 9 122 15 134 36 12 19 12 20 0 10 -22 -18 -134 -27 -183 -15 -71 18 -106 22 -106 12z"/> <path d="M795 838 c-40 -21 -85 -53 -85 -60 0 -13 55 13 90 42 35 30 33 39 -5 18z"/> <path d="M615 778 c-27 -14 -75 -60 -75 -70 0 -20 31 -5 64 32 45 50 48 59 11 38z"/> <path d="M380 671 c-41 -15 -86 -33 -100 -40 -38 -21 -120 -84 -120 -94 0 -13 43 3 70 27 32 28 78 48 92 40 6 -4 8 -2 4 4 -3 6 3 13 14 17 11 3 20 10 20 14 0 5 10 6 23 4 14 -3 29 3 41 16 11 12 27 21 37 21 10 0 21 5 24 10 10 17 -26 10 -105 -19z"/> <path d="M7 564 c-15 -15 -6 -24 26 -24 17 0 38 -4 46 -9 14 -9 71 8 71 21 0 4 -24 8 -54 8 -30 0 -61 2 -68 5 -8 3 -17 2 -21 -1z"/> <path d="M1792 191 c-22 -17 -63 -42 -91 -57 -28 -14 -51 -31 -50 -38 0 -7 2 -7 6 2 2 6 10 12 16 12 19 0 103 48 133 75 14 13 31 22 37 18 6 -3 7 -1 3 5 -9 16 -7 16 -54 -17z"/> <path d="M1305 90 c22 -11 47 -19 55 -19 17 1 -32 23 -70 33 -14 3 -7 -3 15 -14z"/> </g> </svg> 